<svg width="101" height="29" viewBox="0 0 101 29" fill="none" xmlns="http://www.w3.org/2000/svg">
<g clip-path="url(#clip0_266_53)">
<path d="M31.4076 29.0948L27.6016 21.8781H22.9456L22.6434 21.2429L14.9711 5.09146L12.3232 10.6778L16.5767 14.9917H10.308L7.36434 21.2397L7.06341 21.8781H0V19.6456H5.6578L8.60148 13.3982L8.90176 12.7598H11.2487L9.64636 11.1346L9.98201 10.4264L13.9667 2.01819L14.9685 -0.0948486L15.9716 2.01754L24.3461 19.6456H28.9384L31.3253 24.1721L34.5281 17.5739L35.4611 15.6502L37.6737 19.6456H50.9781L51.3015 20.1896L53.7243 24.2671L59.0298 13.3846L59.3346 12.7598H61.6674L60.0399 11.1346L65.4881 -0.0774023L66.4764 2.02077L74.7776 19.6456H100.999V21.8781H73.3714L73.0711 21.2397L65.4566 5.07401L62.7335 10.6778L67.0558 14.9917H60.7196L54.8187 27.0974L53.9173 28.9455L52.8679 27.1788L49.7178 21.8781H36.3677L35.591 20.4753L31.4076 29.0948Z" fill="#EC1C24"/>
<path d="M28.2517 8.41936C29.0703 8.85618 29.7068 9.46424 30.1595 10.2442C30.6128 11.0241 30.8398 11.9146 30.8398 12.9149C30.8398 13.9152 30.6083 14.8056 30.1454 15.5856C29.6824 16.3655 29.0362 16.9742 28.208 17.4104C27.3792 17.8472 26.4339 18.065 25.3717 18.065H21.1169V7.76477H25.4598C26.5021 7.76477 27.4332 7.98318 28.2517 8.41936ZM27.0454 15.7038C27.4988 15.4344 27.8518 15.0589 28.1058 14.5782C28.3591 14.0974 28.4858 13.5482 28.4858 12.9298C28.4858 12.312 28.3514 11.7576 28.0839 11.2671C27.8158 10.7767 27.4499 10.3967 26.9876 10.1266C26.5246 9.85713 26.0006 9.72207 25.4154 9.72207H23.4266V16.109H25.5177C26.0829 16.1083 26.5921 15.9739 27.0454 15.7038Z" fill="black"/>
<path d="M37.7116 18.0657L36.0887 15.1223H35.8694H33.7346V18.0657H31.4243V7.76477H35.8694C37.2049 7.76477 38.2382 8.07623 38.9693 8.69916C39.7004 9.32208 40.0663 10.2028 40.0663 11.3408C40.0663 12.1356 39.903 12.8147 39.5763 13.3789C39.2497 13.943 38.7745 14.372 38.1508 14.6667L40.3293 18.0663H37.7116V18.0657ZM33.7346 13.1798H35.8694C36.5131 13.1798 37.0075 13.0306 37.3535 12.7307C37.6994 12.4315 37.8724 11.9928 37.8724 11.4138C37.8724 10.8451 37.6994 10.4154 37.3535 10.1259C37.0075 9.83645 36.5131 9.6917 35.8694 9.6917H33.7346V13.1798Z" fill="black"/>
<path d="M41.0752 7.76477H48.8684V9.69235H43.3855V11.9295H48.3129V13.857H43.3855V16.1381H49.0298V18.0657H41.0758V7.76477H41.0752Z" fill="black"/>
<path d="M56.9832 7.76477H59.1765V18.0657H57.0706L52.1143 11.4435V18.0657H49.9062V7.76477H52.0114L56.9832 14.416V7.76477Z" fill="black"/>
<path d="M71.6411 7.76477H73.9546V16.0347H78.3477V18.0657H71.6411V7.76477Z" fill="black"/>
<path d="M79.1821 7.76477H81.4957V18.0657H79.1821V7.76477Z" fill="black"/>
<path d="M89.5198 7.76477H91.7163V18.0657H89.6079L84.6439 11.4435V18.0657H82.4326V7.76477H84.541L89.5198 14.416V7.76477Z" fill="black"/>
<path d="M100.839 9.69235H95.348V11.9295H100.282V13.857H95.348V16.1381H101V18.0657H93.0344V7.76477H100.839V9.69235Z" fill="black"/>
</g>
<defs>
<clipPath id="clip0_266_53">
<rect width="101" height="29" fill="white"/>
</clipPath>
</defs>
</svg>
