<svg width="16" height="17" viewBox="0 0 16 17" fill="none" xmlns="http://www.w3.org/2000/svg">
<g clip-path="url(#clip0_266_44)">
<path d="M6.88333 3.378C7.16733 2.20733 8.83267 2.20733 9.11667 3.378C9.15928 3.55387 9.24281 3.71719 9.36047 3.85467C9.47813 3.99215 9.62659 4.0999 9.79377 4.16916C9.96094 4.23843 10.1421 4.26723 10.3225 4.25325C10.5029 4.23926 10.6775 4.18287 10.832 4.08867C11.8607 3.462 13.0387 4.63933 12.412 5.66867C12.3179 5.8231 12.2616 5.99756 12.2477 6.17785C12.2337 6.35814 12.2625 6.53918 12.3317 6.70625C12.4009 6.87333 12.5085 7.02172 12.6458 7.13937C12.7831 7.25702 12.9463 7.3406 13.122 7.38333C14.2927 7.66733 14.2927 9.33267 13.122 9.61667C12.9461 9.65928 12.7828 9.74281 12.6453 9.86047C12.5079 9.97813 12.4001 10.1266 12.3308 10.2938C12.2616 10.4609 12.2328 10.6421 12.2468 10.8225C12.2607 11.0029 12.3171 11.1775 12.4113 11.332C13.038 12.3607 11.8607 13.5387 10.8313 12.912C10.6769 12.8179 10.5024 12.7616 10.3222 12.7477C10.1419 12.7337 9.96082 12.7625 9.79375 12.8317C9.62667 12.9009 9.47828 13.0085 9.36063 13.1458C9.24298 13.2831 9.1594 13.4463 9.11667 13.622C8.83267 14.7927 7.16733 14.7927 6.88333 13.622C6.84072 13.4461 6.75719 13.2828 6.63953 13.1453C6.52187 13.0079 6.37341 12.9001 6.20623 12.8308C6.03906 12.7616 5.85789 12.7328 5.67748 12.7468C5.49706 12.7607 5.3225 12.8171 5.168 12.9113C4.13933 13.538 2.96133 12.3607 3.588 11.3313C3.68207 11.1769 3.73837 11.0024 3.75232 10.8222C3.76628 10.6419 3.7375 10.4608 3.66831 10.2937C3.59913 10.1267 3.49151 9.97828 3.35418 9.86063C3.21686 9.74298 3.05371 9.6594 2.878 9.61667C1.70733 9.33267 1.70733 7.66733 2.878 7.38333C3.05387 7.34072 3.21719 7.25719 3.35467 7.13953C3.49215 7.02187 3.5999 6.87341 3.66916 6.70623C3.73843 6.53906 3.76723 6.35789 3.75325 6.17748C3.73926 5.99706 3.68287 5.8225 3.58867 5.668C2.962 4.63933 4.13933 3.46133 5.16867 4.088C5.83533 4.49333 6.69933 4.13467 6.88333 3.378Z" stroke="black" stroke-linecap="round" stroke-linejoin="round"/>
<path d="M8 10.5C9.10457 10.5 10 9.60457 10 8.5C10 7.39543 9.10457 6.5 8 6.5C6.89543 6.5 6 7.39543 6 8.5C6 9.60457 6.89543 10.5 8 10.5Z" stroke="black" stroke-linecap="round" stroke-linejoin="round"/>
</g>
<defs>
<clipPath id="clip0_266_44">
<rect width="16" height="16" fill="white" transform="translate(0 0.5)"/>
</clipPath>
</defs>
</svg>
